<?xml version="1.0" encoding="UTF-8" standalone="no"?>
<!DOCTYPE svg PUBLIC "-//W3C//DTD SVG 1.1//EN" "http://www.w3.org/Graphics/SVG/1.1/DTD/svg11.dtd">
<svg width="100%" height="100%" viewBox="0 0 316 220" version="1.1" xmlns="http://www.w3.org/2000/svg" xmlns:xlink="http://www.w3.org/1999/xlink" xml:space="preserve" xmlns:serif="http://www.serif.com/" style="fill-rule:evenodd;clip-rule:evenodd;stroke-linejoin:round;stroke-miterlimit:2;">
    <g transform="matrix(1,0,0,1,-11.1852,-8.9448)">
        <g transform="matrix(4.16667,0,0,4.16667,-35.4198,-28.3252)">
            <path d="M38.9,8.945L11.185,36.288L11.185,48.064L38.07,48.064L38.07,61.639L52.459,61.639L52.459,36.734L25.028,36.734L52.806,8.955L38.9,8.945Z" style="fill:rgb(11,0,0);"/>
        </g>
        <g transform="matrix(4.16667,0,0,4.16667,-35.4198,-28.3252)">
            <path d="M72.514,22.917L72.594,8.979L85.976,8.979L85.976,23.071L73.011,36.559L73.011,50.309L58.122,50.309L58.122,36.531L72.514,22.917Z" style="fill:rgb(11,0,0);"/>
        </g>
        <g transform="matrix(4.16667,0,0,4.16667,-35.4198,-28.3252)">
            <path d="M58.144,9.062L58.144,22.669L72.255,9.022L58.144,9.062Z" style="fill:rgb(11,0,0);"/>
        </g>
        <g transform="matrix(-4.16667,0,0,-4.16667,569.087,218.712)">
            <path d="M58.144,9.062L58.144,22.669L72.255,9.022L58.144,9.062Z" style="fill:rgb(11,0,0);"/>
        </g>
    </g>
</svg>
